<svg width="4" height="17" viewBox="0 0 4 17" fill="none" xmlns="http://www.w3.org/2000/svg">
<path d="M0 8.23828C0 9.25613 0.828308 10.0844 1.84615 10.0844C2.864 10.0844 3.69231 9.25613 3.69231 8.23828C3.69231 7.22044 2.864 6.39213 1.84615 6.39213C0.828308 6.39213 0 7.22044 0 8.23828ZM0 14.3921C0 15.41 0.828308 16.2383 1.84615 16.2383C2.864 16.2383 3.69231 15.41 3.69231 14.3921C3.69231 13.3743 2.864 12.546 1.84615 12.546C0.828308 12.546 0 13.3743 0 14.3921ZM0 2.08444C0 3.10228 0.828308 3.93059 1.84615 3.93059C2.864 3.93059 3.69231 3.10228 3.69231 2.08444C3.69231 1.06659 2.864 0.238281 1.84615 0.238281C0.828308 0.238281 0 1.06659 0 2.08444Z" fill="#181D31"/>
</svg>
