<svg width="18" height="18" viewBox="0 0 18 18" fill="none" xmlns="http://www.w3.org/2000/svg">
<path d="M12.1249 6.7875L9.88111 9L12.1249 11.2125C12.1873 11.271 12.2371 11.3416 12.2711 11.4201C12.3051 11.4986 12.3227 11.5832 12.3227 11.6688C12.3227 11.7543 12.3051 11.8389 12.2711 11.9174C12.2371 11.9959 12.1873 12.0665 12.1249 12.125C12.0665 12.1829 11.9972 12.2288 11.921 12.2599C11.8449 12.291 11.7634 12.3067 11.6811 12.3063C11.5171 12.3056 11.36 12.2405 11.2436 12.125L8.99986 9.88125L6.78736 12.125C6.67094 12.2405 6.51382 12.3056 6.34986 12.3063C6.2676 12.3067 6.18606 12.291 6.10992 12.2599C6.03377 12.2288 5.96451 12.1829 5.90611 12.125C5.7897 12.0079 5.72436 11.8495 5.72436 11.6844C5.72436 11.5193 5.7897 11.3609 5.90611 11.2438L8.11861 9L5.90611 6.7875C5.80372 6.66794 5.75021 6.51414 5.75629 6.35685C5.76236 6.19955 5.82757 6.05034 5.93888 5.93903C6.05019 5.82772 6.1994 5.76251 6.3567 5.75643C6.514 5.75036 6.66779 5.80386 6.78736 5.90625L8.99986 8.11875L11.2124 5.90625C11.2702 5.84634 11.3393 5.79841 11.4157 5.7652C11.4921 5.73198 11.5743 5.71414 11.6576 5.71269C11.7408 5.71124 11.8236 5.72621 11.9011 5.75674C11.9786 5.78727 12.0493 5.83277 12.1092 5.89063C12.1691 5.94849 12.2171 6.01759 12.2503 6.09398C12.2835 6.17037 12.3013 6.25255 12.3028 6.33583C12.3042 6.41911 12.2893 6.50187 12.2587 6.57936C12.2282 6.65686 12.1827 6.72759 12.1249 6.7875ZM15.1874 15.1875C13.9636 16.4111 12.4045 17.2444 10.7072 17.5819C9.00989 17.9195 7.2506 17.7462 5.6518 17.0839C4.053 16.4216 2.68649 15.3001 1.72507 13.8611C0.763644 12.4222 0.250488 10.7306 0.250488 9C0.250488 7.26946 0.763644 5.57777 1.72507 4.13886C2.68649 2.69995 4.053 1.57844 5.6518 0.916144C7.2506 0.25385 9.00989 0.0805191 10.7072 0.418067C12.4045 0.755616 13.9636 1.58888 15.1874 2.8125C16 3.62503 16.6446 4.58966 17.0843 5.65132C17.5241 6.71298 17.7505 7.85086 17.7505 9C17.7505 10.1491 17.5241 11.287 17.0843 12.3487C16.6446 13.4103 16 14.375 15.1874 15.1875ZM14.3061 3.69375C13.2562 2.64747 11.9198 1.93575 10.4656 1.64847C9.01147 1.36119 7.50481 1.51123 6.13588 2.07965C4.76695 2.64807 3.59715 3.60938 2.77419 4.84218C1.95123 6.07499 1.51202 7.524 1.51202 9.00625C1.51202 10.4885 1.95123 11.9375 2.77419 13.1703C3.59715 14.4031 4.76695 15.3644 6.13588 15.9329C7.50481 16.5013 9.01147 16.6513 10.4656 16.364C11.9198 16.0768 13.2562 15.365 14.3061 14.3188C15.0053 13.622 15.5601 12.794 15.9386 11.8824C16.3172 10.9708 16.512 9.99336 16.512 9.00625C16.512 8.01915 16.3172 7.04175 15.9386 6.13011C15.5601 5.21848 15.0053 4.39053 14.3061 3.69375Z" fill="#181D31"/>
</svg>
