<svg width="20" height="20" viewBox="0 0 20 20" fill="none" xmlns="http://www.w3.org/2000/svg">
<path d="M9.2301 5.45721V1.44819C9.2301 1.02192 9.5701 0.666687 10.0001 0.666687C10.3851 0.666687 10.7113 0.965178 10.763 1.34327L10.7701 1.44819V5.45721L15.55 5.45751C17.93 5.45751 19.8853 7.40647 19.9951 9.8371L20 10.0528V15.0921C20 17.5397 18.1127 19.5489 15.768 19.6617L15.56 19.6667H4.44C2.06 19.6667 0.11409 17.7275 0.00483778 15.2879L0 15.0714L0 10.0424C0 7.59479 1.87791 5.5759 4.22199 5.46253L4.43 5.45751H9.23V11.8599L7.63 10.2077C7.33 9.89788 6.84 9.89788 6.54 10.2077C6.39 10.3626 6.32 10.5691 6.32 10.7756C6.32 10.9326 6.3648 11.0962 6.45952 11.2346L6.54 11.3333L9.45 14.3486C9.59 14.5035 9.79 14.5861 10 14.5861C10.1667 14.5861 10.3333 14.5287 10.4653 14.4199L10.54 14.3486L13.45 11.3333C13.75 11.0235 13.75 10.5175 13.45 10.2077C13.1773 9.92604 12.7475 9.90044 12.4462 10.1309L12.36 10.2077L10.77 11.8599V5.45751L9.2301 5.45721Z" fill="#34C759"/>
</svg>
