<svg width="20" height="20" viewBox="0 0 20 20" fill="none" xmlns="http://www.w3.org/2000/svg">
<path d="M8 10.2383C8 11.2561 8.82831 12.0844 9.84615 12.0844C10.864 12.0844 11.6923 11.2561 11.6923 10.2383C11.6923 9.22044 10.864 8.39213 9.84615 8.39213C8.82831 8.39213 8 9.22044 8 10.2383ZM8 16.3921C8 17.41 8.82831 18.2383 9.84615 18.2383C10.864 18.2383 11.6923 17.41 11.6923 16.3921C11.6923 15.3743 10.864 14.546 9.84615 14.546C8.82831 14.546 8 15.3743 8 16.3921ZM8 4.08444C8 5.10228 8.82831 5.93059 9.84615 5.93059C10.864 5.93059 11.6923 5.10228 11.6923 4.08444C11.6923 3.06659 10.864 2.23828 9.84615 2.23828C8.82831 2.23828 8 3.06659 8 4.08444Z" fill="white"/>
</svg>
