<svg width="18" height="18" viewBox="0 0 18 18" fill="none" xmlns="http://www.w3.org/2000/svg">
<g clip-path="url(#clip0_8225_3179)">
<path d="M17.1562 8.15625H9.84375V0.84375C9.84375 0.37793 9.46582 0 9 0C8.53418 0 8.15625 0.37793 8.15625 0.84375V8.15625H0.84375C0.37793 8.15625 0 8.53418 0 9C0 9.46582 0.37793 9.84375 0.84375 9.84375H8.15625V17.1562C8.15625 17.6221 8.53418 18 9 18C9.46582 18 9.84375 17.6221 9.84375 17.1562V9.84375H17.1562C17.6221 9.84375 18 9.46582 18 9C18 8.53418 17.6221 8.15625 17.1562 8.15625Z" fill="white"/>
<path d="M13.2377 8.15625H9.84371V0.84375C9.84371 0.37793 9.46578 0 8.99996 0C8.53414 0 8.15621 0.37793 8.15621 0.84375V8.15625H0.843711C0.408125 8.15625 0.0498828 8.48602 0.00488281 8.90965V9.09035C0.0498828 9.51398 0.408477 9.84375 0.843711 9.84375H8.15621V13.2764C8.74868 13.0174 9.31396 12.7001 9.84371 12.3293V9.84375H12.3082C12.6728 9.31321 12.9841 8.74797 13.2377 8.15625Z" fill="white"/>
</g>
<defs>
<clipPath id="clip0_8225_3179">
<rect width="18" height="18" fill="white"/>
</clipPath>
</defs>
</svg>
