<svg width="20" height="20" viewBox="0 0 20 20" fill="none" xmlns="http://www.w3.org/2000/svg">
<path fill-rule="evenodd" clip-rule="evenodd" d="M9.96882 10.6883H10.001C12.9481 10.6883 15.3447 8.29176 15.3447 5.34465C15.3447 2.39754 12.9481 0 10.001 0C7.05291 0 4.65537 2.39754 4.65537 5.34163C4.6453 8.28068 7.02775 10.6792 9.96882 10.6883ZM6.09269 5.34465C6.09269 3.18968 7.84605 1.43732 10.001 1.43732C12.155 1.43732 13.9074 3.18968 13.9074 5.34465C13.9074 7.49861 12.155 9.25198 10.001 9.25198H9.97184C7.82592 9.24393 6.08564 7.49258 6.09269 5.34465Z" fill="#A7AEC1"/>
<path fill-rule="evenodd" clip-rule="evenodd" d="M2.02832 16.2789C2.02832 20 8.02922 20 10.001 20C13.4222 20 17.9717 19.6165 17.9717 16.299C17.9717 12.5779 11.9728 12.5779 10.001 12.5779C6.57882 12.5779 2.02832 12.9614 2.02832 16.2789ZM3.53811 16.2789C3.53811 14.8244 5.7122 14.0877 10.001 14.0877C14.2888 14.0877 16.4619 14.8315 16.4619 16.299C16.4619 17.7534 14.2888 18.4902 10.001 18.4902C5.7122 18.4902 3.53811 17.7464 3.53811 16.2789Z" fill="#A7AEC1"/>
</svg>
