<svg width="21" height="21" viewBox="0 0 21 21" fill="none" xmlns="http://www.w3.org/2000/svg">
<path d="M10.8262 20.25C16.0308 20.25 20.25 16.0308 20.25 10.8262C20.25 5.62144 16.0308 1.40234 10.8262 1.40234C5.62144 1.40234 1.40234 5.62144 1.40234 10.8262C1.40234 16.0308 5.62144 20.25 10.8262 20.25Z" stroke="white" stroke-width="1.5" stroke-miterlimit="10" stroke-linecap="round" stroke-linejoin="round"/>
<path d="M10.8259 11.7538C12.6593 11.7538 14.1455 10.2676 14.1455 8.43425C14.1455 6.60097 12.6593 5.11476 10.8259 5.11476C8.99244 5.11476 7.50635 6.60097 7.50635 8.43425C7.50635 10.2676 8.99245 11.7538 10.8259 11.7538Z" stroke="white" stroke-width="1.5" stroke-miterlimit="10" stroke-linecap="round" stroke-linejoin="round"/>
<mask id="path-3-inside-1_8266_186" fill="white">
<path d="M4.75586 18.9916C5.08134 15.9267 7.67469 13.5392 10.8258 13.5392C13.9771 13.5392 16.5704 15.9269 16.8957 18.9917"/>
</mask>
<path d="M6.24747 19.15C6.15999 19.9738 5.42125 20.5707 4.59746 20.4832C3.77366 20.3957 3.17676 19.657 3.26425 18.8332L6.24747 19.15ZM18.3873 18.8334C18.4748 19.6572 17.8779 20.3959 17.0541 20.4833C16.2303 20.5708 15.4916 19.9738 15.4041 19.15L18.3873 18.8334ZM3.26425 18.8332C3.66987 15.0137 6.8994 12.0392 10.8258 12.0392V15.0392C8.44999 15.0392 6.49281 16.8398 6.24747 19.15L3.26425 18.8332ZM10.8258 12.0392C14.7524 12.0392 17.9819 15.0139 18.3873 18.8334L15.4041 19.15C15.1589 16.8399 13.2017 15.0392 10.8258 15.0392V12.0392Z" fill="white" mask="url(#path-3-inside-1_8266_186)"/>
</svg>
