<svg width="20" height="20" viewBox="0 0 20 20" fill="none" xmlns="http://www.w3.org/2000/svg">
<path fill-rule="evenodd" clip-rule="evenodd" d="M6.88954 3.11474C6.67485 3.4047 6.69951 3.81832 6.97075 4.08081C7.25948 4.36954 7.73109 4.36954 8.01982 4.08081L9.55013 2.54088V6.52544H11.0323V2.54088L12.5626 4.08081L12.6456 4.1524C12.9356 4.36716 13.3492 4.3433 13.6117 4.08081C13.7561 3.93644 13.833 3.74395 13.833 3.55146C13.833 3.36859 13.7561 3.1761 13.6117 3.03173L10.8109 0.221365L10.7236 0.142905C10.5992 0.0492777 10.4452 0 10.2912 0C10.0891 0 9.90623 0.0769964 9.76186 0.221365L6.96112 3.03173L6.88954 3.11474ZM4.73881 6.53063C2.47391 6.63761 0.666504 8.54285 0.666504 10.8639V15.6426L0.67116 15.8472C0.776318 18.1521 2.64944 20.0003 4.94943 20.0003H15.6423L15.8433 19.9955C18.1082 19.8885 19.9156 17.983 19.9156 15.6524V10.8835L19.9109 10.6782C19.8052 8.36482 17.9233 6.52589 15.6327 6.52589H11.0321V12.4013L11.0253 12.5046C10.9755 12.8756 10.6616 13.1554 10.291 13.1554C9.87719 13.1554 9.54996 12.8224 9.54996 12.4013V6.52589H4.9398L4.73881 6.53063Z" fill="#FF3B30"/>
</svg>
